<svg xmlns="http://www.w3.org/2000/svg" viewBox="0 0 80 80">
  <path d="m49.075,76.350001c-0.3,-3.6 -1.8,-7 -4.1,-9.8c11.2,-1.1 27.1,-9 27.9,-21.8c0.2,-1.9 -0.1,-3.7 -0.8,-5.5c0.1,-1.1 -0.5,-2.2 -1.4,-2.8c-0.9,-0.6 -2.2,-0.7 -3.2,-0.1c-3.4,-7.4 -2.6,-13.1 -5.1,-18.8c-5.4,-12.9 -22.9,-16.1 -34.9,-11.2c-0.4,0.2 -0.9,0.1 -1.2,-0.3c-0.7,-1.1 -1.7,-2 -2.8,-2.7c-4.7,2 -7.8,6.5 -8.1,11.6c-8.5,9 -10.8,22.2 -5.8,33.6s16.3,18.7 28.7,18.6c0.9,0 -4.6,1.6 -7.2,9.2" stroke-linejoin="round" stroke-linecap="round" stroke-width="5" stroke="#FFF" fill="none"/>
</svg>